<svg width="447" height="336" viewBox="0 0 447 336" fill="none" xmlns="http://www.w3.org/2000/svg">
<path d="M78.6416 165.181C78.4268 165.575 78.0508 166.291 77.5137 167.33C77.0124 168.368 76.3141 169.55 75.4189 170.875C74.5596 172.164 73.5212 173.506 72.3037 174.903C71.0863 176.299 69.6898 177.589 68.1143 178.77C66.5387 179.916 64.7663 180.865 62.7969 181.617C60.8633 182.369 58.7507 182.745 56.459 182.745C54.418 182.745 52.6097 182.369 51.0342 181.617C49.4587 180.901 48.1159 179.88 47.0059 178.555C45.8958 177.195 45.0544 175.601 44.4814 173.775C43.9085 171.949 43.6221 169.926 43.6221 167.706C43.6221 165.557 43.9264 163.552 44.5352 161.69C45.1439 159.792 45.9674 158.145 47.0059 156.749C48.0801 155.352 49.3154 154.26 50.7119 153.472C52.1084 152.649 53.5944 152.237 55.1699 152.237C56.3516 152.237 57.4258 152.452 58.3926 152.881C59.3594 153.275 60.165 153.812 60.8096 154.493C61.4899 155.173 62.0091 155.925 62.3672 156.749C62.7611 157.572 62.958 158.396 62.958 159.219C62.958 160.007 62.8506 160.741 62.6357 161.422C62.4567 162.102 62.2061 162.711 61.8838 163.248C61.5973 163.749 61.2572 164.161 60.8633 164.483C60.4694 164.769 60.0755 164.913 59.6816 164.913C59.0729 164.913 58.5716 164.716 58.1777 164.322C57.8197 163.928 57.6406 163.445 57.6406 162.872C57.6406 162.585 57.6943 162.335 57.8018 162.12C57.945 161.905 58.0882 161.69 58.2314 161.475C58.4105 161.225 58.5537 160.938 58.6611 160.616C58.8044 160.258 58.876 159.81 58.876 159.273C58.876 158.521 58.5179 157.841 57.8018 157.232C57.1214 156.623 56.2441 156.319 55.1699 156.319C54.1673 156.319 53.2005 156.623 52.2695 157.232C51.3743 157.841 50.5866 158.664 49.9062 159.703C49.2259 160.705 48.6709 161.905 48.2412 163.301C47.8473 164.662 47.6504 166.112 47.6504 167.652C47.6504 169.12 47.8294 170.517 48.1875 171.841C48.5456 173.166 49.0827 174.348 49.7988 175.386C50.515 176.389 51.4102 177.195 52.4844 177.803C53.5944 178.412 54.9014 178.716 56.4053 178.716C58.3389 178.716 60.1292 178.376 61.7764 177.696C63.4235 176.98 64.9274 176.085 66.2881 175.01C67.6488 173.936 68.8483 172.772 69.8867 171.519C70.9251 170.23 71.8024 169.031 72.5186 167.921C73.2705 166.775 73.8434 165.79 74.2373 164.966C74.667 164.107 74.9176 163.57 74.9893 163.355C75.1325 162.997 75.3652 162.728 75.6875 162.549C76.0456 162.335 76.4215 162.227 76.8154 162.227C77.4242 162.227 77.9076 162.442 78.2656 162.872C78.6595 163.301 78.8564 163.785 78.8564 164.322C78.8564 164.537 78.7848 164.823 78.6416 165.181ZM105.551 165.181C105.157 166.005 104.656 166.99 104.047 168.135C103.474 169.245 102.812 170.409 102.06 171.627C101.308 172.844 100.466 174.061 99.5352 175.279C98.6042 176.461 97.5837 177.535 96.4736 178.502C95.3994 179.433 94.2357 180.185 92.9824 180.757C91.765 181.366 90.458 181.671 89.0615 181.671C86.9131 181.671 85.069 181.008 83.5293 179.683C81.9896 178.358 80.6826 176.622 79.6084 174.473C78.5342 172.325 77.6569 169.89 76.9766 167.169C76.332 164.411 75.8307 161.618 75.4727 158.79C75.1146 155.925 74.8639 153.15 74.7207 150.464C74.6133 147.779 74.5596 145.398 74.5596 143.321C74.5596 140.313 74.6491 137.198 74.8281 133.975C75.043 130.753 75.3652 127.602 75.7949 124.522C76.2246 121.443 76.7617 118.524 77.4062 115.767C78.0866 113.01 78.8743 110.593 79.7695 108.516C80.7005 106.439 81.7568 104.792 82.9385 103.575C84.1201 102.357 85.4629 101.749 86.9668 101.749C88.1484 101.749 89.2048 102.035 90.1357 102.608C91.1025 103.145 91.9082 104.04 92.5527 105.294C93.1973 106.547 93.6986 108.176 94.0566 110.181C94.4147 112.186 94.5938 114.639 94.5938 117.54C94.5938 121.12 94.2178 124.826 93.4658 128.658C92.7139 132.453 91.6934 136.285 90.4043 140.152C89.1152 144.019 87.5934 147.886 85.8389 151.754C84.0843 155.585 82.2044 159.327 80.1992 162.979C81.0944 167.527 82.2939 171.107 83.7979 173.721C85.3018 176.299 87.11 177.589 89.2227 177.589C90.6549 177.589 92.0335 177.033 93.3584 175.923C94.6833 174.778 95.9007 173.435 97.0107 171.895C98.1208 170.355 99.0876 168.798 99.9111 167.222C100.771 165.611 101.433 164.322 101.898 163.355C102.077 162.997 102.328 162.728 102.65 162.549C102.973 162.335 103.331 162.227 103.725 162.227C104.333 162.227 104.817 162.442 105.175 162.872C105.569 163.301 105.766 163.785 105.766 164.322C105.766 164.537 105.694 164.823 105.551 165.181ZM78.6416 143.589C78.6416 145.881 78.6953 148.083 78.8027 150.196C78.9102 152.309 79.0534 154.332 79.2324 156.265C80.7363 153.365 82.1686 150.285 83.5293 147.027C84.89 143.733 86.0895 140.421 87.1279 137.09C88.1663 133.725 88.9899 130.394 89.5986 127.1C90.2432 123.77 90.5654 120.601 90.5654 117.593C90.5654 113.368 90.2253 110.342 89.5449 108.516C88.8646 106.69 87.9515 105.777 86.8057 105.777C86.0537 105.777 85.3197 106.296 84.6035 107.335C83.9232 108.373 83.2786 109.787 82.6699 111.578C82.0612 113.368 81.5062 115.481 81.0049 117.916C80.5036 120.351 80.0739 122.964 79.7158 125.757C79.3936 128.55 79.125 131.469 78.9102 134.512C78.7311 137.556 78.6416 140.582 78.6416 143.589ZM110.707 137.896C110.707 139.257 110.224 140.421 109.257 141.387C108.326 142.318 107.18 142.784 105.819 142.784C104.459 142.784 103.295 142.318 102.328 141.387C101.397 140.421 100.932 139.257 100.932 137.896C100.932 137.216 101.057 136.589 101.308 136.016C101.558 135.408 101.898 134.888 102.328 134.459C102.794 133.993 103.313 133.635 103.886 133.384C104.494 133.134 105.139 133.008 105.819 133.008C106.5 133.008 107.126 133.134 107.699 133.384C108.308 133.635 108.827 133.993 109.257 134.459C109.722 134.888 110.08 135.408 110.331 136.016C110.582 136.589 110.707 137.216 110.707 137.896ZM102.006 169.371C102.006 164.214 102.328 159.076 102.973 153.956C103.044 153.454 103.259 153.025 103.617 152.667C104.011 152.273 104.512 152.076 105.121 152.076C105.658 152.076 106.106 152.291 106.464 152.72C106.822 153.114 107.001 153.58 107.001 154.117C107.001 154.332 106.947 154.976 106.84 156.05C106.768 157.125 106.661 158.414 106.518 159.918C106.41 161.386 106.303 162.961 106.195 164.644C106.124 166.291 106.088 167.813 106.088 169.21C106.088 171.107 106.267 172.647 106.625 173.829C107.019 174.975 107.502 175.87 108.075 176.514C108.684 177.159 109.311 177.589 109.955 177.803C110.635 178.018 111.28 178.126 111.889 178.126C112.891 178.126 113.93 177.768 115.004 177.051C116.078 176.335 117.17 175.333 118.28 174.044C119.426 172.755 120.572 171.215 121.718 169.424C122.864 167.598 123.992 165.575 125.102 163.355C125.281 162.997 125.531 162.728 125.854 162.549C126.176 162.335 126.534 162.227 126.928 162.227C127.501 162.227 127.966 162.442 128.324 162.872C128.718 163.301 128.915 163.767 128.915 164.268C128.915 164.626 128.843 164.931 128.7 165.181C128.271 166.005 127.733 167.007 127.089 168.189C126.444 169.371 125.71 170.588 124.887 171.841C124.063 173.095 123.15 174.348 122.147 175.601C121.181 176.819 120.142 177.929 119.032 178.931C117.922 179.898 116.758 180.686 115.541 181.295C114.324 181.903 113.088 182.208 111.835 182.208C110.224 182.208 108.809 181.867 107.592 181.187C106.374 180.507 105.336 179.594 104.477 178.448C103.653 177.302 103.026 175.959 102.597 174.42C102.203 172.844 102.006 171.161 102.006 169.371ZM107.699 137.896C107.699 137.395 107.502 136.965 107.108 136.607C106.75 136.213 106.321 136.016 105.819 136.016C105.318 136.016 104.888 136.213 104.53 136.607C104.172 136.965 103.993 137.395 103.993 137.896C103.993 138.397 104.172 138.827 104.53 139.185C104.888 139.543 105.318 139.722 105.819 139.722C106.321 139.722 106.75 139.543 107.108 139.185C107.502 138.827 107.699 138.397 107.699 137.896ZM160.175 165.181C159.96 165.575 159.584 166.291 159.047 167.33C158.546 168.368 157.847 169.55 156.952 170.875C156.093 172.164 155.054 173.506 153.837 174.903C152.619 176.299 151.223 177.589 149.647 178.77C148.072 179.916 146.299 180.865 144.33 181.617C142.396 182.369 140.284 182.745 137.992 182.745C135.951 182.745 134.143 182.369 132.567 181.617C130.992 180.901 129.649 179.88 128.539 178.555C127.429 177.195 126.588 175.601 126.015 173.775C125.442 171.949 125.155 169.926 125.155 167.706C125.155 165.557 125.46 163.552 126.068 161.69C126.677 159.792 127.501 158.145 128.539 156.749C129.613 155.352 130.849 154.26 132.245 153.472C133.642 152.649 135.128 152.237 136.703 152.237C137.885 152.237 138.959 152.452 139.926 152.881C140.893 153.275 141.698 153.812 142.343 154.493C143.023 155.173 143.542 155.925 143.9 156.749C144.294 157.572 144.491 158.396 144.491 159.219C144.491 160.007 144.384 160.741 144.169 161.422C143.99 162.102 143.739 162.711 143.417 163.248C143.131 163.749 142.79 164.161 142.396 164.483C142.003 164.769 141.609 164.913 141.215 164.913C140.606 164.913 140.105 164.716 139.711 164.322C139.353 163.928 139.174 163.445 139.174 162.872C139.174 162.585 139.228 162.335 139.335 162.12C139.478 161.905 139.621 161.69 139.765 161.475C139.944 161.225 140.087 160.938 140.194 160.616C140.338 160.258 140.409 159.81 140.409 159.273C140.409 158.521 140.051 157.841 139.335 157.232C138.655 156.623 137.777 156.319 136.703 156.319C135.701 156.319 134.734 156.623 133.803 157.232C132.908 157.841 132.12 158.664 131.439 159.703C130.759 160.705 130.204 161.905 129.774 163.301C129.381 164.662 129.184 166.112 129.184 167.652C129.184 169.12 129.363 170.517 129.721 171.841C130.079 173.166 130.616 174.348 131.332 175.386C132.048 176.389 132.943 177.195 134.018 177.803C135.128 178.412 136.435 178.716 137.938 178.716C139.872 178.716 141.662 178.376 143.31 177.696C144.957 176.98 146.461 176.085 147.821 175.01C149.182 173.936 150.382 172.772 151.42 171.519C152.458 170.23 153.336 169.031 154.052 167.921C154.804 166.775 155.377 165.79 155.771 164.966C156.2 164.107 156.451 163.57 156.522 163.355C156.666 162.997 156.898 162.728 157.221 162.549C157.579 162.335 157.955 162.227 158.349 162.227C158.957 162.227 159.441 162.442 159.799 162.872C160.193 163.301 160.39 163.785 160.39 164.322C160.39 164.537 160.318 164.823 160.175 165.181ZM170.058 173.453C170.666 174.813 171.669 175.906 173.065 176.729C174.462 177.517 176.037 177.911 177.792 177.911C178.329 177.911 179.206 177.839 180.424 177.696C181.641 177.517 183.038 176.98 184.613 176.085C186.225 175.154 187.925 173.703 189.716 171.734C191.506 169.765 193.243 166.99 194.926 163.409C195.105 163.015 195.355 162.728 195.678 162.549C196 162.335 196.358 162.227 196.752 162.227C197.361 162.227 197.844 162.442 198.202 162.872C198.596 163.301 198.793 163.767 198.793 164.268C198.793 164.483 198.721 164.769 198.578 165.128C197.325 167.742 195.928 170.087 194.389 172.164C192.849 174.205 191.184 175.959 189.394 177.427C187.603 178.86 185.723 179.952 183.754 180.704C181.82 181.492 179.833 181.885 177.792 181.885C176.181 181.885 174.659 181.635 173.227 181.133C171.83 180.632 170.613 179.97 169.574 179.146C168.572 178.287 167.766 177.338 167.157 176.299C166.584 175.225 166.298 174.133 166.298 173.023C166.298 172.88 166.316 172.683 166.352 172.432C166.387 172.182 166.477 171.913 166.62 171.627C166.799 171.304 167.032 171.018 167.318 170.767C167.641 170.481 168.07 170.248 168.607 170.069C170.076 169.639 171.418 169.12 172.636 168.511C173.889 167.867 174.963 167.151 175.858 166.363C176.754 165.575 177.452 164.716 177.953 163.785C178.454 162.818 178.705 161.78 178.705 160.67C178.705 159.703 178.383 158.915 177.738 158.306C177.094 157.698 176.306 157.393 175.375 157.393C174.408 157.393 173.459 157.733 172.528 158.414C171.597 159.058 170.684 159.936 169.789 161.046C168.93 162.12 168.106 163.373 167.318 164.805C166.531 166.202 165.797 167.67 165.116 169.21C164.472 170.749 163.899 172.289 163.397 173.829C162.896 175.333 162.484 176.729 162.162 178.018C162.055 178.412 161.929 178.842 161.786 179.307C161.679 179.773 161.5 180.202 161.249 180.596C160.998 181.026 160.694 181.366 160.336 181.617C159.978 181.903 159.512 182.047 158.939 182.047C158.402 182.047 157.883 181.814 157.382 181.348C156.881 180.919 156.63 180.167 156.63 179.092C156.63 178.878 156.63 178.054 156.63 176.622C156.666 175.189 156.701 173.327 156.737 171.036C156.773 168.708 156.809 166.059 156.845 163.087C156.916 160.079 156.97 156.91 157.006 153.58C157.042 150.214 157.095 146.758 157.167 143.214C157.239 139.669 157.292 136.213 157.328 132.847C157.364 129.481 157.4 126.295 157.436 123.287C157.507 120.243 157.561 117.558 157.597 115.23C157.632 112.867 157.65 110.951 157.65 109.483C157.686 107.979 157.704 107.084 157.704 106.797C157.704 106.225 157.919 105.759 158.349 105.401C158.778 105.007 159.244 104.81 159.745 104.81C160.318 104.81 160.801 105.007 161.195 105.401C161.589 105.759 161.786 106.242 161.786 106.851C161.786 106.923 161.768 107.639 161.732 109C161.732 110.325 161.715 112.115 161.679 114.371C161.643 116.627 161.589 119.258 161.518 122.266C161.482 125.274 161.428 128.479 161.356 131.881C161.321 135.246 161.267 138.72 161.195 142.3C161.16 145.881 161.106 149.372 161.034 152.774C160.998 156.176 160.963 159.416 160.927 162.496C160.891 165.575 160.855 168.297 160.819 170.66C161.392 168.834 162.126 166.918 163.021 164.913C163.917 162.872 164.973 160.992 166.19 159.273C167.408 157.554 168.769 156.14 170.272 155.03C171.812 153.92 173.513 153.365 175.375 153.365C176.413 153.365 177.38 153.562 178.275 153.956C179.171 154.314 179.94 154.833 180.585 155.513C181.265 156.158 181.785 156.928 182.143 157.823C182.536 158.718 182.733 159.685 182.733 160.723C182.733 162.335 182.375 163.821 181.659 165.181C180.943 166.506 179.994 167.706 178.812 168.78C177.631 169.818 176.27 170.731 174.73 171.519C173.227 172.307 171.669 172.951 170.058 173.453ZM290.37 123.663C290.263 124.164 290.03 124.558 289.672 124.844C289.314 125.131 288.92 125.274 288.49 125.274C287.846 125.274 287.326 125.077 286.933 124.683C286.539 124.254 286.342 123.77 286.342 123.233C286.342 122.696 286.396 122.177 286.503 121.675C286.61 121.138 286.664 120.619 286.664 120.118C286.664 117.504 285.858 115.158 284.247 113.082C282.636 111.005 280.344 109.268 277.372 107.872C274.436 106.439 270.855 105.347 266.63 104.595C262.405 103.843 257.696 103.467 252.504 103.467C248.529 103.467 244.519 103.736 240.473 104.273C236.462 104.774 232.595 105.526 228.871 106.529C225.183 107.496 221.728 108.731 218.505 110.235C215.282 111.703 212.471 113.422 210.072 115.391C207.709 117.325 205.847 119.491 204.486 121.89C203.126 124.254 202.445 126.85 202.445 129.678C202.445 131.863 202.911 133.796 203.842 135.479C204.809 137.126 206.116 138.576 207.763 139.83C209.41 141.047 211.343 142.103 213.563 142.999C215.819 143.858 218.254 144.592 220.868 145.201C223.482 145.774 226.203 146.257 229.032 146.651C231.861 147.009 234.708 147.313 237.572 147.564L245.844 148.262C249.962 148.62 253.65 148.996 256.908 149.39C260.167 149.784 263.031 150.285 265.502 150.894C269.62 151.933 272.663 153.419 274.633 155.352C276.602 157.286 277.587 159.864 277.587 163.087C277.587 166.202 276.728 168.941 275.009 171.304C273.29 173.668 270.945 175.655 267.973 177.266C265.001 178.878 261.527 180.095 257.553 180.919C253.578 181.742 249.317 182.154 244.77 182.154C239.828 182.154 235.478 181.814 231.718 181.133C227.994 180.489 224.861 179.773 222.318 178.985C219.812 178.161 217.896 177.409 216.571 176.729C215.246 176.049 214.53 175.673 214.423 175.601C213.778 175.243 213.456 174.67 213.456 173.882C213.456 173.274 213.671 172.79 214.101 172.432C214.53 172.038 214.996 171.841 215.497 171.841C215.891 171.841 216.249 171.949 216.571 172.164C216.607 172.164 217.216 172.486 218.397 173.131C219.615 173.739 221.405 174.42 223.769 175.172C226.168 175.923 229.122 176.604 232.631 177.213C236.14 177.821 240.222 178.126 244.877 178.126C249.496 178.126 253.578 177.75 257.123 176.998C260.668 176.246 263.64 175.207 266.039 173.882C268.474 172.522 270.3 170.946 271.518 169.156C272.771 167.33 273.397 165.36 273.397 163.248C273.397 161.994 273.165 160.92 272.699 160.025C272.27 159.094 271.661 158.306 270.873 157.662C270.085 156.981 269.136 156.408 268.026 155.943C266.952 155.478 265.771 155.084 264.481 154.761C263.121 154.403 261.653 154.099 260.077 153.848C258.537 153.598 256.944 153.383 255.297 153.204C253.65 153.025 251.985 152.864 250.302 152.72C248.655 152.577 247.025 152.434 245.414 152.291L237.143 151.592C230.626 151.055 224.932 150.232 220.062 149.122C215.229 147.976 211.2 146.526 207.978 144.771C204.755 142.981 202.338 140.85 200.727 138.38C199.115 135.909 198.31 133.026 198.31 129.732C198.31 126.366 199.062 123.287 200.565 120.494C202.105 117.665 204.182 115.123 206.796 112.867C209.446 110.611 212.525 108.659 216.034 107.012C219.579 105.329 223.357 103.933 227.367 102.823C231.378 101.713 235.531 100.889 239.828 100.352C244.125 99.7793 248.35 99.4928 252.504 99.4928C257.696 99.4928 262.208 99.8151 266.039 100.46C269.906 101.068 273.201 101.874 275.922 102.877C278.679 103.843 280.935 104.953 282.689 106.207C284.444 107.46 285.858 108.695 286.933 109.913C289.475 112.885 290.746 116.269 290.746 120.064C290.746 121.317 290.621 122.517 290.37 123.663ZM296.762 175.494C297.335 174.276 297.997 172.969 298.749 171.573C299.501 170.141 300.307 168.69 301.166 167.222C302.025 165.718 302.938 164.232 303.905 162.764C304.872 161.296 305.875 159.918 306.913 158.629C307.951 157.375 308.99 156.48 310.028 155.943C311.103 155.37 312.105 155.084 313.036 155.084C313.967 155.084 314.773 155.281 315.453 155.674C316.169 156.033 316.742 156.534 317.172 157.178C317.637 157.823 317.978 158.575 318.192 159.434C318.443 160.294 318.568 161.225 318.568 162.227C318.568 163.051 318.479 164.161 318.3 165.557C318.157 166.918 318.085 168.35 318.085 169.854C318.085 170.714 318.121 171.573 318.192 172.432C318.3 173.256 318.461 174.008 318.676 174.688C318.926 175.333 319.285 175.87 319.75 176.299C320.215 176.693 320.824 176.89 321.576 176.89C322.436 176.89 323.295 176.658 324.154 176.192C325.014 175.691 325.855 175.046 326.679 174.258C327.502 173.435 328.29 172.54 329.042 171.573C329.794 170.57 330.474 169.586 331.083 168.619C331.692 167.616 332.229 166.667 332.694 165.772C333.16 164.841 333.536 164.071 333.822 163.463C334.18 162.639 334.807 162.227 335.702 162.227C336.311 162.227 336.794 162.442 337.152 162.872C337.51 163.301 337.689 163.767 337.689 164.268C337.689 164.555 337.636 164.823 337.528 165.074C337.385 165.36 337.099 165.951 336.669 166.846C336.275 167.742 335.72 168.78 335.004 169.962C334.324 171.143 333.518 172.379 332.587 173.668C331.656 174.957 330.618 176.156 329.472 177.266C328.362 178.34 327.144 179.236 325.819 179.952C324.53 180.632 323.17 180.972 321.737 180.972C320.09 180.972 318.765 180.632 317.763 179.952C316.76 179.236 315.972 178.34 315.399 177.266C314.862 176.192 314.486 174.992 314.271 173.668C314.092 172.343 314.003 171.054 314.003 169.8C314.003 169.156 314.021 168.476 314.057 167.759C314.128 167.007 314.2 166.273 314.271 165.557C314.343 164.841 314.397 164.179 314.433 163.57C314.504 162.925 314.54 162.388 314.54 161.959C314.54 160.849 314.379 160.097 314.057 159.703C313.77 159.309 313.43 159.112 313.036 159.112C312.463 159.112 311.801 159.452 311.049 160.132C310.333 160.777 309.563 161.636 308.739 162.711C307.951 163.785 307.146 165.002 306.322 166.363C305.535 167.688 304.765 169.013 304.013 170.338C303.261 171.662 302.58 172.934 301.972 174.151C301.363 175.333 300.862 176.317 300.468 177.105C299.716 178.609 298.946 179.612 298.158 180.113C297.406 180.65 296.726 180.919 296.117 180.919C295.007 180.919 294.148 180.489 293.539 179.63C292.966 178.734 292.68 177.66 292.68 176.407V173.023C292.68 166.256 292.68 159.81 292.68 153.687C292.715 147.528 292.805 141.817 292.948 136.553C293.127 131.254 293.396 126.474 293.754 122.213C294.148 117.916 294.721 114.263 295.473 111.256C296.225 108.212 297.174 105.867 298.319 104.219C299.501 102.572 300.969 101.749 302.724 101.749C304.228 101.749 305.499 102.16 306.537 102.984C307.576 103.808 308.417 104.936 309.062 106.368C309.706 107.764 310.172 109.411 310.458 111.309C310.744 113.171 310.888 115.141 310.888 117.217C310.888 121.443 310.494 125.596 309.706 129.678C308.954 133.725 307.934 137.681 306.645 141.548C305.355 145.416 303.852 149.193 302.133 152.881C300.414 156.534 298.606 160.097 296.708 163.57C296.708 164.214 296.708 164.984 296.708 165.88C296.708 166.775 296.708 167.67 296.708 168.565C296.708 169.46 296.708 170.302 296.708 171.089C296.708 171.877 296.708 172.504 296.708 172.969L296.762 175.494ZM296.762 155.674C298.266 152.38 299.626 149.175 300.844 146.06C302.097 142.909 303.153 139.776 304.013 136.661C304.908 133.546 305.606 130.394 306.107 127.208C306.609 123.985 306.859 120.637 306.859 117.164C306.859 116.591 306.824 115.678 306.752 114.424C306.716 113.171 306.555 111.9 306.269 110.611C306.018 109.322 305.606 108.194 305.033 107.227C304.496 106.26 303.726 105.777 302.724 105.777C301.936 105.777 301.256 106.314 300.683 107.388C300.11 108.427 299.608 109.859 299.179 111.685C298.749 113.476 298.391 115.57 298.104 117.969C297.818 120.368 297.585 122.911 297.406 125.596C297.227 128.282 297.084 131.039 296.977 133.868C296.905 136.697 296.851 139.454 296.815 142.139C296.78 144.789 296.762 147.278 296.762 149.605C296.762 151.933 296.762 153.956 296.762 155.674ZM358.637 174.151C357.742 174.151 356.954 174.079 356.273 173.936C355.736 175.01 355.092 176.013 354.34 176.944C353.588 177.839 352.711 178.627 351.708 179.307C350.741 179.988 349.649 180.525 348.432 180.919C347.214 181.312 345.889 181.509 344.457 181.509C342.774 181.509 341.234 181.205 339.838 180.596C338.441 180.023 337.224 179.218 336.186 178.179C335.147 177.105 334.341 175.834 333.769 174.366C333.196 172.862 332.909 171.215 332.909 169.424C332.909 167.133 333.321 165.145 334.145 163.463C334.968 161.744 335.917 160.329 336.991 159.219C338.065 158.074 339.14 157.232 340.214 156.695C341.288 156.122 342.094 155.836 342.631 155.836C343.24 155.836 343.687 155.997 343.974 156.319C344.296 156.641 344.457 157.071 344.457 157.608C344.457 158.217 344.26 158.682 343.866 159.005C343.508 159.291 343.043 159.577 342.47 159.864C341.897 160.15 341.288 160.562 340.644 161.099C339.999 161.601 339.39 162.245 338.817 163.033C338.28 163.821 337.833 164.752 337.475 165.826C337.117 166.9 336.938 168.1 336.938 169.424C336.938 170.606 337.117 171.716 337.475 172.755C337.833 173.757 338.352 174.634 339.032 175.386C339.713 176.103 340.518 176.675 341.449 177.105C342.38 177.499 343.419 177.696 344.564 177.696C346.605 177.696 348.288 177.23 349.613 176.299C350.974 175.333 352.012 174.115 352.729 172.647C350.616 171.537 348.879 169.962 347.519 167.921C346.158 165.88 345.478 163.588 345.478 161.046C345.478 159.005 345.961 157.339 346.928 156.05C347.93 154.761 349.237 154.117 350.849 154.117C351.815 154.117 352.729 154.35 353.588 154.815C354.447 155.281 355.199 156.015 355.844 157.017C356.524 158.02 357.061 159.309 357.455 160.884C357.849 162.46 358.046 164.34 358.046 166.524C358.046 167.67 357.903 168.869 357.616 170.123C357.831 170.158 358.046 170.176 358.261 170.176C358.476 170.176 358.708 170.176 358.959 170.176C360.176 170.176 361.269 170.033 362.235 169.747C363.202 169.46 364.079 169.031 364.867 168.458C365.655 167.885 366.353 167.151 366.962 166.256C367.606 165.36 368.215 164.322 368.788 163.14C368.896 162.925 369.128 162.728 369.486 162.549C369.844 162.335 370.202 162.227 370.561 162.227C371.026 162.227 371.456 162.424 371.85 162.818C372.279 163.176 372.494 163.659 372.494 164.268C372.494 164.555 372.423 164.877 372.279 165.235C372.136 165.557 371.993 165.862 371.85 166.148C371.241 167.222 370.525 168.261 369.701 169.263C368.913 170.23 367.965 171.089 366.854 171.841C365.78 172.558 364.563 173.131 363.202 173.56C361.841 173.99 360.32 174.187 358.637 174.151ZM349.452 160.616C349.452 161.296 349.542 162.012 349.721 162.764C349.9 163.516 350.168 164.268 350.526 165.02C350.92 165.736 351.386 166.435 351.923 167.115C352.496 167.759 353.158 168.314 353.91 168.78C354.018 168.028 354.071 167.294 354.071 166.578C354.071 165.611 354 164.626 353.856 163.624C353.713 162.621 353.498 161.708 353.212 160.884C352.961 160.025 352.639 159.345 352.245 158.843C351.851 158.306 351.386 158.038 350.849 158.038C350.634 158.038 350.347 158.199 349.989 158.521C349.631 158.843 349.452 159.542 349.452 160.616ZM396.234 165.074C396.234 168.368 395.644 171.179 394.462 173.506C393.28 175.834 391.83 177.606 390.111 178.824H390.326C392.439 178.824 394.354 178.358 396.073 177.427C397.828 176.461 399.403 175.243 400.8 173.775C402.196 172.271 403.45 170.606 404.56 168.78C405.67 166.954 406.654 165.181 407.514 163.463C407.693 163.069 407.943 162.764 408.266 162.549C408.624 162.335 409 162.227 409.394 162.227C410.002 162.227 410.486 162.442 410.844 162.872C411.202 163.301 411.381 163.767 411.381 164.268C411.381 164.555 411.327 164.823 411.22 165.074C410.289 167.151 409.179 169.245 407.89 171.358C406.601 173.435 405.097 175.315 403.378 176.998C401.659 178.681 399.726 180.041 397.577 181.08C395.429 182.154 393.048 182.691 390.434 182.691C388.536 182.691 386.692 182.387 384.901 181.778C383.111 181.205 381.535 180.292 380.175 179.039C379.674 178.645 379.244 178.233 378.886 177.803C378.528 177.338 378.241 176.908 378.026 176.514C377.955 176.443 377.919 176.371 377.919 176.299C377.704 175.977 377.597 175.637 377.597 175.279C377.597 174.813 377.758 174.384 378.08 173.99C378.116 173.918 378.152 173.882 378.188 173.882C378.223 173.847 378.259 173.811 378.295 173.775C378.653 173.453 379.047 173.274 379.477 173.238H379.638C379.817 173.238 379.942 173.256 380.014 173.292C380.049 173.292 380.067 173.31 380.067 173.345C380.103 173.345 380.139 173.345 380.175 173.345C380.282 173.345 380.408 173.381 380.551 173.453C380.587 173.489 380.622 173.506 380.658 173.506C380.98 173.721 381.249 173.99 381.464 174.312C381.715 174.742 382.001 175.136 382.323 175.494C382.61 175.78 382.95 176.049 383.344 176.299C383.738 176.514 384.185 176.622 384.687 176.622C385.582 176.622 386.477 176.353 387.372 175.816C388.267 175.279 389.073 174.509 389.789 173.506C390.505 172.504 391.078 171.286 391.508 169.854C391.973 168.422 392.206 166.828 392.206 165.074C392.206 163.785 392.063 162.693 391.776 161.797C391.526 160.867 391.186 160.115 390.756 159.542C390.362 158.969 389.932 158.557 389.467 158.306C389.001 158.02 388.554 157.877 388.124 157.877C387.157 157.877 386.173 158.378 385.17 159.381C384.203 160.383 383.236 161.654 382.27 163.194C381.303 164.734 380.336 166.435 379.369 168.297C378.438 170.158 377.489 171.967 376.522 173.721C376.451 179.522 376.343 185.054 376.2 190.318C376.093 195.582 375.878 200.469 375.556 204.981C375.269 209.493 374.857 213.575 374.32 217.227C373.783 220.88 373.049 223.995 372.118 226.573C371.187 229.187 370.041 231.192 368.681 232.589C367.32 233.985 365.655 234.683 363.686 234.683C363.077 234.683 362.379 234.558 361.591 234.307C360.803 234.057 360.069 233.537 359.389 232.75C358.708 231.998 358.135 230.906 357.67 229.473C357.204 228.041 356.972 226.125 356.972 223.726C356.972 220.683 357.348 217.156 358.1 213.145C358.852 209.135 359.926 204.874 361.322 200.362C362.683 195.886 364.312 191.285 366.21 186.558C368.108 181.832 370.202 177.23 372.494 172.755C372.494 171.501 372.494 170.266 372.494 169.048C372.53 167.831 372.548 166.649 372.548 165.504C372.082 166.041 371.527 166.309 370.883 166.309C370.274 166.309 369.791 166.094 369.433 165.665C369.075 165.235 368.896 164.769 368.896 164.268C368.896 164.018 368.949 163.749 369.057 163.463C369.916 161.493 370.578 159.631 371.044 157.877C371.509 156.086 371.85 154.529 372.064 153.204C372.315 151.843 372.458 150.769 372.494 149.981C372.53 149.193 372.548 148.782 372.548 148.746C372.548 148.209 372.745 147.743 373.139 147.349C373.533 146.955 374.016 146.758 374.589 146.758C375.126 146.758 375.591 146.955 375.985 147.349C376.379 147.707 376.576 148.173 376.576 148.746V165.235C377.4 163.839 378.223 162.46 379.047 161.099C379.87 159.739 380.73 158.521 381.625 157.447C382.556 156.373 383.541 155.513 384.579 154.869C385.653 154.188 386.835 153.848 388.124 153.848C389.341 153.848 390.451 154.135 391.454 154.708C392.457 155.281 393.316 156.068 394.032 157.071C394.748 158.074 395.285 159.273 395.644 160.67C396.037 162.03 396.234 163.498 396.234 165.074ZM372.387 182.315C370.632 186.254 369.039 190.211 367.606 194.185C366.21 198.16 365.028 201.991 364.062 205.679C363.059 209.367 362.289 212.823 361.752 216.046C361.215 219.268 360.946 222.097 360.946 224.532C360.946 225.141 360.982 225.803 361.054 226.519C361.125 227.235 361.269 227.898 361.483 228.506C361.698 229.115 362.003 229.617 362.396 230.01C362.79 230.44 363.31 230.655 363.954 230.655C365.136 230.655 366.156 229.903 367.016 228.399C367.875 226.931 368.591 224.926 369.164 222.383C369.773 219.877 370.274 216.977 370.668 213.682C371.062 210.424 371.366 207.004 371.581 203.423C371.832 199.843 372.011 196.226 372.118 192.574C372.226 188.957 372.315 185.538 372.387 182.315Z" fill="url(#paint0_linear_1_6)"/>
<path d="M358.215 195.98L254.202 213.441C237.714 216.209 220.685 215.046 204.637 210.055C197.709 207.901 190.571 206.452 183.346 205.732L169.708 204.374C151.445 202.556 133.059 202.819 114.942 205.156L102.084 206.814L77.6449 206.814C61.9052 206.814 47.2829 198.602 39.5884 185.44L35.4712 178.398C27.3198 164.454 31.2437 147.123 44.6348 137.924C49.5074 134.577 55.2791 132.579 61.3212 132.149L92.0037 129.966C113.769 128.417 134.781 122.157 153.433 111.664L157.202 109.543C166.709 104.195 176.788 99.8002 187.281 96.4275L213.5 88L274.024 97.285C291.985 100.04 308.871 107.481 322.783 118.77L331.635 125.953C353.017 143.303 363.162 170.03 358.215 195.98Z" fill="url(#paint1_linear_1_6)" fill-opacity="0.1"/>
<defs>
<linearGradient id="paint0_linear_1_6" x1="223.5" y1="65.0592" x2="223.5" y2="250.808" gradientUnits="userSpaceOnUse">
<stop stop-color="#1DAC5F"/>
<stop offset="1" stop-opacity="0"/>
</linearGradient>
<linearGradient id="paint1_linear_1_6" x1="121.456" y1="126.582" x2="197.035" y2="239.171" gradientUnits="userSpaceOnUse">
<stop stop-color="#D9D9D9"/>
<stop offset="1" stop-color="#D9D9D9" stop-opacity="0"/>
</linearGradient>
</defs>
</svg>
